<svg class="svg svg-living-doc-explain top-40" xmlns="http://www.w3.org/2000/svg" viewBox="0 0 1230 380"><defs><filter id="a" x="40" y="0" width="200" height="140" filterUnits="userSpaceOnUse"><feOffset></feOffset><feGaussianBlur stdDeviation="10" result="b"></feGaussianBlur><feFlood flood-color="#dedede"></feFlood><feComposite operator="in" in2="b"></feComposite><feComposite in="SourceGraphic"></feComposite></filter><filter id="c" x="40" y="140" width="200" height="140" filterUnits="userSpaceOnUse"><feOffset></feOffset><feGaussianBlur stdDeviation="10" result="d"></feGaussianBlur><feFlood flood-color="#dedede"></feFlood><feComposite operator="in" in2="d"></feComposite><feComposite in="SourceGraphic"></feComposite></filter><filter id="e" x="550" y="0" width="680" height="280" filterUnits="userSpaceOnUse"><feOffset></feOffset><feGaussianBlur stdDeviation="10" result="f"></feGaussianBlur><feFlood flood-color="#dedede"></feFlood><feComposite operator="in" in2="f"></feComposite><feComposite in="SourceGraphic"></feComposite></filter><filter id="g" x="785" y="240" width="210" height="140" filterUnits="userSpaceOnUse"><feOffset></feOffset><feGaussianBlur stdDeviation="10" result="h"></feGaussianBlur><feFlood flood-color="#dedede"></feFlood><feComposite operator="in" in2="h"></feComposite><feComposite in="SourceGraphic"></feComposite></filter><filter id="i" x="160" y="240" width="140" height="140" filterUnits="userSpaceOnUse"><feOffset></feOffset><feGaussianBlur stdDeviation="10" result="j"></feGaussianBlur><feFlood flood-color="#dedede"></feFlood><feComposite operator="in" in2="j"></feComposite><feComposite in="SourceGraphic"></feComposite></filter><filter id="k" x="300" y="60" width="160" height="160" filterUnits="userSpaceOnUse"><feOffset></feOffset><feGaussianBlur stdDeviation="10" result="l"></feGaussianBlur><feFlood flood-color="#dedede"></feFlood><feComposite operator="in" in2="l"></feComposite><feComposite in="SourceGraphic"></feComposite></filter><filter id="m" x="550" y="0" width="680" height="280" filterUnits="userSpaceOnUse"><feOffset></feOffset><feGaussianBlur stdDeviation="10" result="n"></feGaussianBlur><feFlood flood-color="#dedede"></feFlood><feComposite operator="in" in2="n"></feComposite><feComposite in="SourceGraphic"></feComposite></filter><filter id="o" x="0" y="70" width="200" height="140" filterUnits="userSpaceOnUse"><feOffset></feOffset><feGaussianBlur stdDeviation="10" result="p"></feGaussianBlur><feFlood flood-color="#dedede"></feFlood><feComposite operator="in" in2="p"></feComposite><feComposite in="SourceGraphic"></feComposite></filter><linearGradient id="q" x1=".5" y1="1.021" x2=".5" y2=".021" gradientUnits="objectBoundingBox"><stop offset="0" stop-color="#fff"></stop><stop offset="1" stop-color="#fff" stop-opacity="0"></stop></linearGradient><style>.a{fill:#fff}.b{fill:#f4f7fd}.c{fill:#453d91}.d{fill:#004d96}.e{fill:#45bad9}.f,.j{fill:#574897}.g{fill:#a5c0dc}.h{fill:#cddcee}.i,.r{fill:none}.i{stroke:#e0e7ec}.j{font-size:12px;font-family:Roboto;font-weight:500;letter-spacing:.05em}.r{stroke:#cddcee;stroke-width:10px}</style></defs><g transform="translate(-160 -469)"><g transform="translate(160 469)" filter="url(#a)"><rect class="a" width="140" height="80" rx="20" transform="translate(70 30)"></rect></g><g transform="translate(160 469)" filter="url(#c)"><rect class="a" width="140" height="80" rx="20" transform="translate(70 170)"></rect></g><g transform="translate(0 -960)"><g transform="translate(160 1429)" filter="url(#e)"><rect class="a" width="620" height="220" rx="20" transform="translate(580 30)"></rect></g><path class="b" d="M740 1519h310v160H760a20 20 0 01-20-20v-140z"></path><path class="c" d="M858.372 1494.221l-1.4-5.009c-.168-.53-.478-1.765-.92-3.7h-.086q-.564 2.624-.9 3.719l-1.433 4.994h-2.537l-3.03-10.742h2.343l1.378 5.294q.465 1.965.666 3.359h.061c.066-.475.163-1.015.295-1.62s.254-1.075.351-1.38l1.642-5.654h2.523l1.591 5.654c.1.315.219.8.361 1.455a11.058 11.058 0 01.264 1.525h.076a29.81 29.81 0 01.681-3.339l1.4-5.294h2.3l-3.043 10.743h-2.582zm-19.362-5.388q0 3.719 2.765 3.719 2.737 0 2.735-3.719 0-3.682-2.755-3.679a2.362 2.362 0 00-2.1.95 4.833 4.833 0 00-.646 2.729m7.859 0a5.846 5.846 0 01-1.357 4.109 4.874 4.874 0 01-3.777 1.475 5.166 5.166 0 01-2.674-.68 4.537 4.537 0 01-1.789-1.95 6.63 6.63 0 01-.625-2.954 5.8 5.8 0 011.347-4.079 4.894 4.894 0 013.8-1.465 4.759 4.759 0 013.711 1.5 5.738 5.738 0 011.367 4.039m-12.878 5.393H831.7v-15.111h2.293zm-4.133-9.011h-2.635v9.013h-2.3v-9.013h-1.785v-1.071l1.779-.7v-.7a3.86 3.86 0 01.9-2.814 3.679 3.679 0 012.745-.925 7.387 7.387 0 012.384.4l-.6 1.73a5.35 5.35 0 00-1.623-.27 1.336 1.336 0 00-1.144.485 2.413 2.413 0 00-.351 1.44v.7h2.635v1.725zm-10.965 9.206a4.776 4.776 0 01-3.731-1.42 5.941 5.941 0 01-1.271-4.086 5.969 5.969 0 011.332-4.166 4.973 4.973 0 013.858-1.455 7.262 7.262 0 013.075.63l-.691 1.835a7 7 0 00-2.4-.565q-2.806 0-2.8 3.7a4.459 4.459 0 00.691 2.719 2.448 2.448 0 002.049.9 5.918 5.918 0 002.9-.76v1.99a4.588 4.588 0 01-1.317.515 7.446 7.446 0 01-1.688.16m-11.585-9.4a2.333 2.333 0 00-1.759.69 3.3 3.3 0 00-.783 2.009h4.9a2.958 2.958 0 00-.65-2.002 2.179 2.179 0 00-1.713-.69m.422 9.4a5.273 5.273 0 01-3.945-1.455 5.553 5.553 0 01-1.418-4.029 6.069 6.069 0 011.317-4.139 4.56 4.56 0 013.624-1.5 4.478 4.478 0 013.38 1.29 4.907 4.907 0 011.24 3.554v1.235h-7.2a3.527 3.527 0 00.849 2.409 2.986 2.986 0 002.257.835 8.684 8.684 0 001.779-.175 10.116 10.116 0 001.779-.6v1.855a7.055 7.055 0 01-1.7.565 11.048 11.048 0 01-1.967.16m-12.252-9.272a2.411 2.411 0 00-2 .795 4.132 4.132 0 00-.625 2.544v.34a5.018 5.018 0 00.625 2.844 2.334 2.334 0 002.043.875 2.076 2.076 0 001.835-.97 4.979 4.979 0 00.643-2.771 4.745 4.745 0 00-.646-2.729 2.127 2.127 0 00-1.876-.93m.554 9.263a3.791 3.791 0 01-3.182-1.465h-.137q.137 1.357.137 1.65v4.4h-2.292v-15.515h1.855q.076.3.32 1.44h.117a3.6 3.6 0 013.223-1.63 3.755 3.755 0 013.147 1.455 6.506 6.506 0 011.134 4.089 6.535 6.535 0 01-1.154 4.109 3.785 3.785 0 01-3.167 1.47m-7.966-3.255a2.823 2.823 0 01-1.154 2.419 5.581 5.581 0 01-3.3.835 7.826 7.826 0 01-3.467-.65v-1.97a8.518 8.518 0 003.543.875q2.12 0 2.12-1.275a1 1 0 00-.234-.68 2.8 2.8 0 00-.773-.565 12.647 12.647 0 00-1.494-.66 7.016 7.016 0 01-2.531-1.44 2.666 2.666 0 01-.65-1.858 2.432 2.432 0 011.113-2.134 5.333 5.333 0 013.045-.765 8.68 8.68 0 013.6.765l-.742 1.72a8.035 8.035 0 00-2.938-.72c-1.21 0-1.815.345-1.815 1.03a1.047 1.047 0 00.468.855 10.488 10.488 0 002.069.96 9.557 9.557 0 011.942.94 2.862 2.862 0 01.9.99 2.783 2.783 0 01.295 1.33M773.081 1490.95a1.99 1.99 0 01-1.182-.387l-2.24-1.626-8.83 6.425a2.011 2.011 0 001.182 3.638 1.99 1.99 0 001.187-.388l11.069-8.05c.02-.015.035-.03.055-.045a2 2 0 01-1.241.433z"></path><path class="d" d="M760.83 1495.374l3.195-2.308v-12.061a2.013 2.013 0 00-4.025 0v16.013a1.976 1.976 0 01.83-1.644z"></path><path class="e" d="M774.263 1487.442l-11.069-8.05a.05.05 0 00-.025-.02 2 2 0 01.855 1.645v3.95l7.874 5.726a2.009 2.009 0 002.812-.443 2.011 2.011 0 00-.447-2.808z"></path><path class="f" d="M740 1599h310v13H740z"></path><rect class="g" width="100" height="3" rx="1.5" transform="translate(760 1539)"></rect><rect class="g" width="100" height="3" rx="1.5" transform="translate(770 1552)"></rect><rect class="g" width="100" height="3" rx="1.5" transform="translate(780 1565)"></rect><rect class="h" width="200" height="3" rx="1.5" transform="translate(780 1578)"></rect><rect class="h" width="150" height="3" rx="1.5" transform="translate(780 1591)"></rect><rect class="a" width="200" height="3" rx="1.5" transform="translate(780 1604)"></rect><rect class="h" width="150" height="3" rx="1.5" transform="translate(780 1617)"></rect><rect class="h" width="200" height="3" rx="1.5" transform="translate(780 1630)"></rect><rect class="h" width="150" height="3" rx="1.5" transform="translate(780 1643)"></rect><rect class="h" width="200" height="3" rx="1.5" transform="translate(780 1656)"></rect><path class="i" d="M740.5 1519.5h620"></path><rect class="h" width="200" height="3" rx="1.5" transform="translate(1070 1539)"></rect><rect class="h" width="150" height="3" rx="1.5" transform="translate(1070 1552)"></rect><rect class="g" width="50" height="3" rx="1.5" transform="translate(1090 1565)"></rect><rect class="g" width="200" height="3" rx="1.5" transform="translate(1090 1578)"></rect><rect class="g" width="150" height="3" rx="1.5" transform="translate(1090 1604)"></rect><rect class="g" width="100" height="3" rx="1.5" transform="translate(1090 1617)"></rect><rect class="g" width="50" height="3" rx="1.5" transform="translate(1090 1630)"></rect><rect class="g" width="100" height="3" rx="1.5" transform="translate(1150 1630)"></rect><rect class="g" width="150" height="3" rx="1.5" transform="translate(1090 1643)"></rect><rect class="g" width="100" height="3" rx="1.5" transform="translate(1090 1656)"></rect></g><g transform="translate(160 469)" filter="url(#g)"><rect class="a" width="150" height="80" rx="40" transform="translate(815 270)"></rect></g><g transform="translate(-35 -1510)"><circle class="b" cx="30" cy="30" r="30" transform="translate(1020 2259)"></circle><path class="f" d="M1064.561 2301.439l-6.376-6.375a13.023 13.023 0 10-2.121 2.121l6.375 6.376a1.5 1.5 0 002.122-2.122zM1048 2297a10 10 0 1110-10 10.011 10.011 0 01-10 10z"></path></g><g transform="translate(-35 -1510)"><circle class="b" cx="30" cy="30" r="30" transform="translate(1090 2259)"></circle><path class="f" d="M1120 2277a5 5 0 11-5 5 5.006 5.006 0 015-5m0-3a8 8 0 108 8 8 8 0 00-8-8zM1133.5 2304a1.5 1.5 0 01-1.5-1.5c0-4.065-5.495-7.5-12-7.5s-12 3.435-12 7.5a1.5 1.5 0 01-3 0c0-5.888 6.589-10.5 15-10.5s15 4.612 15 10.5a1.5 1.5 0 01-1.5 1.5z"></path></g><g transform="translate(-268 -26)"><g transform="translate(428 495)" filter="url(#i)"><rect class="a" width="80" height="80" rx="40" transform="translate(190 270)"></rect></g><circle class="b" cx="30" cy="30" r="30" transform="translate(628 775)"></circle><path class="f" d="M647.5 811a1.5 1.5 0 01-1.061-.439l-5-5a1.5 1.5 0 010-2.122l5-5a1.5 1.5 0 012.122 2.122l-3.94 3.939 3.94 3.939A1.5 1.5 0 01647.5 811zM669.5 811a1.5 1.5 0 01-1.061-2.561l3.94-3.939-3.94-3.939a1.5 1.5 0 012.122-2.122l5 5a1.5 1.5 0 010 2.122l-5 5a1.5 1.5 0 01-1.061.439zM655.5 817a1.5 1.5 0 01-1.448-1.9l6-22a1.5 1.5 0 112.894.79l-6 22A1.5 1.5 0 01655.5 817z"></path></g><g transform="translate(160 469)" filter="url(#k)"><rect class="a" width="100" height="100" rx="50" transform="translate(330 90)"></rect></g><circle class="b" cx="40" cy="40" r="40" transform="translate(500 569)"></circle><path class="f" d="M532.005 628.997a4 4 0 01-2.359-7.24l21.991-16a4 4 0 014.708 6.47l-21.991 16a3.953 3.953 0 01-2.349.77z"></path><path class="e" d="M553.995 613.007a3.953 3.953 0 01-2.349-.77l-21.992-16a4 4 0 014.708-6.47l21.991 16a4 4 0 01-2.358 7.24z"></path>
        <path class="d" d="M532.005 628.997a4 4 0 01-4-4v-31.99a4 4 0 018 0v31.991a4 4 0 01-4 3.999z"></path><path class="f" d="M551.644 612.237l-4.448-3.24-17.542 12.76a4 4 0 002.351 7.24 3.953 3.953 0 002.349-.77l19.639-14.28z"></path><g transform="translate(0 -960)"><g transform="translate(160 1429)" filter="url(#m)"><rect class="a" width="620" height="220" rx="20" transform="translate(580 30)"></rect></g><path class="b" d="M740 1519h310v160H760a20 20 0 01-20-20v-140z"></path><path class="c" d="M858.372 1494.221l-1.4-5.009c-.168-.53-.478-1.765-.92-3.7h-.086q-.564 2.624-.9 3.719l-1.433 4.994h-2.537l-3.03-10.742h2.343l1.378 5.294q.465 1.965.666 3.359h.061c.066-.475.163-1.015.295-1.62s.254-1.075.351-1.38l1.642-5.654h2.523l1.591 5.654c.1.315.219.8.361 1.455a11.058 11.058 0 01.264 1.525h.076a29.81 29.81 0 01.681-3.339l1.4-5.294h2.3l-3.043 10.743h-2.582zm-19.362-5.388q0 3.719 2.765 3.719 2.737 0 2.735-3.719 0-3.682-2.755-3.679a2.362 2.362 0 00-2.1.95 4.833 4.833 0 00-.646 2.729m7.859 0a5.846 5.846 0 01-1.357 4.109 4.874 4.874 0 01-3.777 1.475 5.166 5.166 0 01-2.674-.68 4.537 4.537 0 01-1.789-1.95 6.63 6.63 0 01-.625-2.954 5.8 5.8 0 011.347-4.079 4.894 4.894 0 013.8-1.465 4.759 4.759 0 013.711 1.5 5.738 5.738 0 011.367 4.039m-12.878 5.393H831.7v-15.111h2.293zm-4.133-9.011h-2.635v9.013h-2.3v-9.013h-1.785v-1.071l1.779-.7v-.7a3.86 3.86 0 01.9-2.814 3.679 3.679 0 012.745-.925 7.387 7.387 0 012.384.4l-.6 1.73a5.35 5.35 0 00-1.623-.27 1.336 1.336 0 00-1.144.485 2.413 2.413 0 00-.351 1.44v.7h2.635v1.725zm-10.965 9.206a4.776 4.776 0 01-3.731-1.42 5.941 5.941 0 01-1.271-4.086 5.969 5.969 0 011.332-4.166 4.973 4.973 0 013.858-1.455 7.262 7.262 0 013.075.63l-.691 1.835a7 7 0 00-2.4-.565q-2.806 0-2.8 3.7a4.459 4.459 0 00.691 2.719 2.448 2.448 0 002.049.9 5.918 5.918 0 002.9-.76v1.99a4.588 4.588 0 01-1.317.515 7.446 7.446 0 01-1.688.16m-11.585-9.4a2.333 2.333 0 00-1.759.69 3.3 3.3 0 00-.783 2.009h4.9a2.958 2.958 0 00-.65-2.002 2.179 2.179 0 00-1.713-.69m.422 9.4a5.273 5.273 0 01-3.945-1.455 5.553 5.553 0 01-1.418-4.029 6.069 6.069 0 011.317-4.139 4.56 4.56 0 013.624-1.5 4.478 4.478 0 013.38 1.29 4.907 4.907 0 011.24 3.554v1.235h-7.2a3.527 3.527 0 00.849 2.409 2.986 2.986 0 002.257.835 8.684 8.684 0 001.779-.175 10.116 10.116 0 001.779-.6v1.855a7.055 7.055 0 01-1.7.565 11.048 11.048 0 01-1.967.16m-12.252-9.272a2.411 2.411 0 00-2 .795 4.132 4.132 0 00-.625 2.544v.34a5.018 5.018 0 00.625 2.844 2.334 2.334 0 002.043.875 2.076 2.076 0 001.835-.97 4.979 4.979 0 00.643-2.771 4.745 4.745 0 00-.646-2.729 2.127 2.127 0 00-1.876-.93m.554 9.263a3.791 3.791 0 01-3.182-1.465h-.137q.137 1.357.137 1.65v4.4h-2.292v-15.515h1.855q.076.3.32 1.44h.117a3.6 3.6 0 013.223-1.63 3.755 3.755 0 013.147 1.455 6.506 6.506 0 011.134 4.089 6.535 6.535 0 01-1.154 4.109 3.785 3.785 0 01-3.167 1.47m-7.966-3.255a2.823 2.823 0 01-1.154 2.419 5.581 5.581 0 01-3.3.835 7.826 7.826 0 01-3.467-.65v-1.97a8.518 8.518 0 003.543.875q2.12 0 2.12-1.275a1 1 0 00-.234-.68 2.8 2.8 0 00-.773-.565 12.647 12.647 0 00-1.494-.66 7.016 7.016 0 01-2.531-1.44 2.666 2.666 0 01-.65-1.858 2.432 2.432 0 011.113-2.134 5.333 5.333 0 013.045-.765 8.68 8.68 0 013.6.765l-.742 1.72a8.035 8.035 0 00-2.938-.72c-1.21 0-1.815.345-1.815 1.03a1.047 1.047 0 00.468.855 10.488 10.488 0 002.069.96 9.557 9.557 0 011.942.94 2.862 2.862 0 01.9.99 2.783 2.783 0 01.295 1.33M773.081 1490.95a1.99 1.99 0 01-1.182-.387l-2.24-1.626-8.83 6.425a2.011 2.011 0 001.182 3.638 1.99 1.99 0 001.187-.388l11.069-8.05c.02-.015.035-.03.055-.045a2 2 0 01-1.241.433z"></path><path class="d" d="M760.83 1495.374l3.195-2.308v-12.061a2.013 2.013 0 00-4.025 0v16.013a1.976 1.976 0 01.83-1.644z"></path><path class="e" d="M774.263 1487.442l-11.069-8.05a.05.05 0 00-.025-.02 2 2 0 01.855 1.645v3.95l7.874 5.726a2.009 2.009 0 002.812-.443 2.011 2.011 0 00-.447-2.808z"></path><path class="f" d="M740 1599h310v13H740z"></path><rect class="g" width="100" height="3" rx="1.5" transform="translate(760 1539)"></rect><rect class="g" width="100" height="3" rx="1.5" transform="translate(770 1552)"></rect><rect class="g" width="100" height="3" rx="1.5" transform="translate(780 1565)"></rect><rect class="h" width="200" height="3" rx="1.5" transform="translate(780 1578)"></rect><rect class="h" width="150" height="3" rx="1.5" transform="translate(780 1591)"></rect><rect class="a" width="200" height="3" rx="1.5" transform="translate(780 1604)"></rect><rect class="h" width="150" height="3" rx="1.5" transform="translate(780 1617)"></rect><rect class="h" width="200" height="3" rx="1.5" transform="translate(780 1630)"></rect><rect class="h" width="150" height="3" rx="1.5" transform="translate(780 1643)"></rect><rect class="h" width="200" height="3" rx="1.5" transform="translate(780 1656)"></rect><path class="i" d="M740.5 1519.5h620"></path><rect class="h" width="200" height="3" rx="1.5" transform="translate(1070 1539)"></rect><rect class="h" width="150" height="3" rx="1.5" transform="translate(1070 1552)"></rect><rect class="g" width="50" height="3" rx="1.5" transform="translate(1090 1565)"></rect><rect class="g" width="200" height="3" rx="1.5" transform="translate(1090 1578)"></rect><rect class="g" width="150" height="3" rx="1.5" transform="translate(1090 1604)"></rect><rect class="g" width="100" height="3" rx="1.5" transform="translate(1090 1617)"></rect><rect class="g" width="50" height="3" rx="1.5" transform="translate(1090 1630)"></rect><rect class="g" width="100" height="3" rx="1.5" transform="translate(1150 1630)"></rect><rect class="g" width="150" height="3" rx="1.5" transform="translate(1090 1643)"></rect><rect class="g" width="100" height="3" rx="1.5" transform="translate(1090 1656)"></rect></g><g transform="translate(160 469)" filter="url(#o)"><rect class="a" width="140" height="80" rx="20" transform="translate(30 100)"></rect></g><text class="j" transform="translate(250 562)"><tspan x="0" y="0">THEN</tspan></text><text class="j" transform="translate(250 524)"><tspan x="0" y="0">GIVEN</tspan></text><text class="j" transform="translate(250 543)"><tspan x="0" y="0">WHEN</tspan></text><rect class="h" width="38" height="3" rx="1.5" transform="translate(299 519)"></rect><text class="j" transform="translate(347 524)"><tspan x="0" y="0">;</tspan></text><rect class="h" width="38" height="3" rx="1.5" transform="translate(299 538)"></rect><text class="j" transform="translate(347 543)"><tspan x="0" y="0">;</tspan></text><rect class="h" width="38" height="3" rx="1.5" transform="translate(299 557)"></rect><text class="j" transform="translate(347 562)"><tspan x="0" y="0">;</tspan></text><g><path d="M284.5 692.411a1.867 1.867 0 01-1.941.306l-3.406-1.437a1.885 1.885 0 01-1.153-1.73v-20.1a1.885 1.885 0 011.153-1.73l3.408-1.414a1.867 1.867 0 011.941.306l.764.636a1.031 1.031 0 00-1.079-.078 1.042 1.042 0 00-.562.929v22.804a1.042 1.042 0 00.562.929 1.031 1.031 0 001.078-.081z" fill="#52218a"></path><path d="M279.153 691.28a1.885 1.885 0 01-1.153-1.731v-.155a1.082 1.082 0 001.875.73l29.062-32.3a2.8 2.8 0 013.2-.547l9.272 4.486a2.828 2.828 0 011.591 2.55v.108a1.776 1.776 0 00-2.9-1.381l-34.834 28.709-.764.66a1.867 1.867 0 01-1.941.306z" fill="#6c33af"></path><path d="M279.153 667.72a1.885 1.885 0 00-1.153 1.73v.155a1.082 1.082 0 011.875-.73l29.062 32.304a2.8 2.8 0 003.2.547l9.272-4.486a2.828 2.828 0 001.591-2.553v-.108a1.776 1.776 0 01-2.9 1.381l-34.834-28.711-.766-.66a1.867 1.867 0 00-1.941-.283z" fill="#854cc7"></path><path d="M312.137 701.721a2.8 2.8 0 01-3.2-.547 1.649 1.649 0 002.813-1.173v-40.993a1.649 1.649 0 00-2.813-1.183 2.8 2.8 0 013.2-.546l9.272 4.481a2.828 2.828 0 011.591 2.549v30.382a2.828 2.828 0 01-1.594 2.549z" fill="#b179f1"></path><path d="M32.292 45.177a2.8 2.8 0 001.842-.207l9.272-4.481A2.828 2.828 0 0045 37.939V7.557a2.828 2.828 0 00-1.594-2.549L34.134.527a2.783 2.783 0 00-3.2.547l-14.94 16.614L7.266 10.5 6.5 9.838a1.868 1.868 0 00-1.692-.391 1.191 1.191 0 00-.248.085l-3.407 1.436A1.884 1.884 0 000 12.556V32.94a1.884 1.884 0 001.153 1.588l3.408 1.414a1.191 1.191 0 00.248.085 1.868 1.868 0 001.691-.392L7.266 35l8.728-7.19 14.943 16.613a2.808 2.808 0 001.355.754zm1.458-32l-11.62 9.571 11.62 9.575zM5.625 16.279l5.817 6.469-5.817 6.47z" transform="translate(278 656.752)" fill="url(#q)" fill-rule="evenodd" opacity=".25"></path></g><path d="M260.498 587c-12.423 0-22.5 10.329-22.5 23.071a23.029 23.029 0 0015.389 21.89c1.124.212 1.535-.5 1.535-1.112 0-.548-.019-2-.03-3.924-6.258 1.4-7.579-3.092-7.579-3.092-1.024-2.665-2.5-3.375-2.5-3.375-2.043-1.432.155-1.4.155-1.4a4.739 4.739 0 013.446 2.378c2.008 3.525 5.267 2.507 6.549 1.916a4.983 4.983 0 011.428-3.085c-5-.582-10.249-2.561-10.249-11.4a9.046 9.046 0 012.316-6.192 8.5 8.5 0 01.221-6.105s1.89-.62 6.187 2.365a21.058 21.058 0 015.633-.776 21.092 21.092 0 015.634.776c4.294-2.985 6.181-2.365 6.181-2.365a8.49 8.49 0 01.224 6.105 9.03 9.03 0 012.312 6.192c0 8.862-5.26 10.812-10.272 11.384a5.58 5.58 0 011.527 4.272c0 3.085-.028 5.573-.028 6.329 0 .617.4 1.334 1.547 1.109a23.033 23.033 0 0015.381-21.89c0-12.742-10.08-23.071-22.507-23.071z" fill-rule="evenodd"></path><path class="r" d="M370 539h22.957c29.281 0-2.4 70.5 35.794 70.5H450M370 680h22.957c29.281 0-2.4-70.5 35.794-70.5H450M330 609.502h160"></path></g></svg>