<svg class="logo svg logo-svg" version="1.1" id="logo" xmlns="http://www.w3.org/2000/svg" viewBox="0 0 102 27.34"><defs><style>.sf-logo-1{fill:#574897}.sf-logo-3{fill:#004c97}</style></defs><g><path class="sf-logo-1" d="m96.49 15.22-1.37-5c-.16-.53-.46-1.76-.9-3.7h-.08c-.37 1.75-.66 3-.88 3.72l-1.4 5h-2.49l-3-10.75h2.33l1.35 5.3c.3 1.31.52 2.43.65 3.36h.06c.06-.48.16-1 .29-1.62s.25-1.08.34-1.38L93 4.48h2.47L97 10.14c.1.31.22.8.36 1.45a13.13 13.13 0 0 1 .26 1.53h.07a31.25 31.25 0 0 1 .67-3.34l1.37-5.3H102l-3 10.75h-2.51ZM77.54 9.83q0 3.72 2.71 3.72t2.67-3.72q0-3.68-2.69-3.68a2.31 2.31 0 0 0-2.06.95 5 5 0 0 0-.63 2.73Zm7.69 0a5.89 5.89 0 0 1-1.33 4.11 4.69 4.69 0 0 1-3.69 1.48 5 5 0 0 1-2.62-.68 4.55 4.55 0 0 1-1.75-2 6.75 6.75 0 0 1-.61-3 5.84 5.84 0 0 1 1.32-4.08 4.71 4.71 0 0 1 3.71-1.46 4.61 4.61 0 0 1 3.63 1.5 5.81 5.81 0 0 1 1.34 4.13Zm-12.6 5.39h-2.24V.11h2.24Zm-4-9H66v9h-2.25v-9H62V5.14l1.74-.7v-.7a3.92 3.92 0 0 1 .89-2.82A3.58 3.58 0 0 1 67.32 0a7 7 0 0 1 2.33.4l-.59 1.73a5.2 5.2 0 0 0-1.59-.27 1.3 1.3 0 0 0-1.12.48A2.47 2.47 0 0 0 66 3.78v.7h2.58v1.73Zm-10.78 9.2A4.65 4.65 0 0 1 54.2 14 6 6 0 0 1 53 9.91a6 6 0 0 1 1.3-4.17A4.79 4.79 0 0 1 58 4.29a7 7 0 0 1 3 .63l-.67 1.83A6.91 6.91 0 0 0 58 6.19q-2.74 0-2.74 3.7a4.49 4.49 0 0 0 .74 2.72 2.36 2.36 0 0 0 2 .9 5.63 5.63 0 0 0 2.84-.76v2a4.54 4.54 0 0 1-1.29.52 7.09 7.09 0 0 1-1.7.15ZM46.51 6a2.25 2.25 0 0 0-1.72.69 3.3 3.3 0 0 0-.76 2h4.79a3 3 0 0 0-.63-2A2.11 2.11 0 0 0 46.51 6Zm.42 9.4a5.09 5.09 0 0 1-3.86-1.4 5.61 5.61 0 0 1-1.39-4A6.13 6.13 0 0 1 43 5.79a4.42 4.42 0 0 1 3.54-1.5 4.32 4.32 0 0 1 3.31 1.29A5 5 0 0 1 51 9.13v1.24h-7a3.61 3.61 0 0 0 .83 2.41 2.9 2.9 0 0 0 2.21.83 8.7 8.7 0 0 0 1.74-.17 10.62 10.62 0 0 0 1.74-.6v1.85a6.53 6.53 0 0 1-1.66.57 11 11 0 0 1-1.93.16Zm-12-9.27A2.33 2.33 0 0 0 33 7a4.18 4.18 0 0 0-.61 2.54v.34a5.11 5.11 0 0 0 .61 2.8 2.27 2.27 0 0 0 2 .87 2 2 0 0 0 1.8-1 5.09 5.09 0 0 0 .63-2.77 4.88 4.88 0 0 0-.63-2.73 2.08 2.08 0 0 0-1.87-.9Zm.54 9.27a3.65 3.65 0 0 1-3.11-1.4h-.14c.09.91.14 1.46.14 1.65V20h-2.25V4.48h1.82c.05.2.15.68.31 1.44h.12a3.49 3.49 0 0 1 3.15-1.63 3.64 3.64 0 0 1 3.08 1.46 6.61 6.61 0 0 1 1.11 4.09A6.67 6.67 0 0 1 38.57 14a3.66 3.66 0 0 1-3.1 1.42Zm-7.79-3.26a2.84 2.84 0 0 1-1.13 2.42 5.33 5.33 0 0 1-3.23.84 7.62 7.62 0 0 1-3.4-.65v-2a8.28 8.28 0 0 0 3.47.87c1.39 0 2.08-.42 2.08-1.27a1 1 0 0 0-.23-.68 3 3 0 0 0-.76-.57 13.88 13.88 0 0 0-1.48-.61 6.86 6.86 0 0 1-2.48-1.44 2.71 2.71 0 0 1-.64-1.86A2.45 2.45 0 0 1 21 5.06a5.16 5.16 0 0 1 3-.77 8.34 8.34 0 0 1 3.53.77l-.72 1.72a7.73 7.73 0 0 0-2.88-.72c-1.18 0-1.78.34-1.78 1a1.06 1.06 0 0 0 .46.85 9.48 9.48 0 0 0 2 1 10 10 0 0 1 1.9.94 3 3 0 0 1 .88 1 2.9 2.9 0 0 1 .29 1.31ZM2 20a2 2 0 0 1-1.18-3.62l10.94-8a2 2 0 0 1 2.79.44 2 2 0 0 1-.44 2.8l-10.95 8A2 2 0 0 1 2 20Z"></path><path d="M12.94 12a2 2 0 0 1-1.17-.38l-10.95-8A2 2 0 0 1 3.17.39l10.94 8a2 2 0 0 1 .44 2.8 2 2 0 0 1-.71.6 1.9 1.9 0 0 1-.9.21Z" fill="#45b9d9"></path><path class="sf-logo-3" d="M2 20a2 2 0 0 1-2-2V2a2 2 0 1 1 4 0v16a2 2 0 0 1-2 2Z"></path><path class="sf-logo-1" d="M11.77 11.62 9.56 10 .82 16.38A1.89 1.89 0 0 0 .3 17a2 2 0 0 0-.27.74 2.05 2.05 0 0 0 0 .78 1.88 1.88 0 0 0 .33.7 1.92 1.92 0 0 0 .56.54 2.38 2.38 0 0 0 .73.27 1.87 1.87 0 0 0 .78 0 1.88 1.88 0 0 0 .7-.33l9.78-7.13Z"></path><path class="sf-logo-3" d="M62.86 18.51H56.7v1.13h2.48v6.23h1.2v-6.23h2.48Z"></path><path class="sf-logo-3" d="m63.08 21.06-.08-.64h-1.1v5.45h1.2v-3.6a1.86 1.86 0 0 1 .75-.58 2.63 2.63 0 0 1 1.07-.22h.22v-1.15h-.22a2.51 2.51 0 0 0-1.84.74ZM67 18.32h-1.26v1.27H67Zm0 2.1h-1.23v5.45H67Zm13.93-.1a2.57 2.57 0 0 0-1.8.75l-.13-.65h-1v5.45h1.2v-3.54a2.07 2.07 0 0 1 1.55-.89c.68 0 1 .35 1 1.11v3.33h1.2v-3.43a2.26 2.26 0 0 0-.52-1.52 1.86 1.86 0 0 0-1.5-.61Zm4.45-1.2-2.18 2.11v.25h1v3c0 1 .57 1.48 1.64 1.48a2.09 2.09 0 0 0 1-.24h.07v-1h-.23a1.42 1.42 0 0 1-1.07.08c-.1 0-.16-.18-.16-.41v-2.91h1.49v-1.06h-1.56Zm3.47-.8h-1.27v1.27h1.27Zm-.03 2.1h-1.2v5.45h1.2Zm4.56 2.89a1.64 1.64 0 0 0-.83-.51l-.91-.24a3.44 3.44 0 0 1-.76-.27c-.22-.1-.25-.23-.25-.32a.42.42 0 0 1 .25-.37 1.86 1.86 0 0 1 .9-.17 3.44 3.44 0 0 1 1.3.27h.26v-1.06h-.09a4.77 4.77 0 0 0-1.71-.29 2.24 2.24 0 0 0-1.54.45 1.6 1.6 0 0 0-.56 1.26 1.28 1.28 0 0 0 .36.94 1.69 1.69 0 0 0 .83.5l.91.24a4.07 4.07 0 0 1 .74.26c.24.11.24.23.24.26 0 .26-.1.6-1 .6a3.55 3.55 0 0 1-1.77-.47h-.22v1.09h.07a4 4 0 0 0 1.93.48 2.55 2.55 0 0 0 1.63-.46 1.47 1.47 0 0 0 .57-1.15 1.56 1.56 0 0 0-.35-1.04Zm-18.5-2.99a2.69 2.69 0 0 0-1 .18 2.55 2.55 0 0 0-.84.53 2.68 2.68 0 0 0-.58.9 3.15 3.15 0 0 0-.23 1.24 3.55 3.55 0 0 0 .18 1.12 2.24 2.24 0 0 0 .54.9 2.27 2.27 0 0 0 .89.57 3.59 3.59 0 0 0 1.29.22 5.46 5.46 0 0 0 .57 0l.53-.07a3.39 3.39 0 0 0 .43-.11 1.57 1.57 0 0 0 .28-.1l-.17-1a3.78 3.78 0 0 1-.6.17 5.14 5.14 0 0 1-.88.08 1.9 1.9 0 0 1-1.25-.36 1.43 1.43 0 0 1-.49-1h3.75a1.34 1.34 0 0 0 0-.21 1.93 1.93 0 0 0 0-.23 2.91 2.91 0 0 0-.61-2.15 2.37 2.37 0 0 0-1.81-.68Zm1.19 2.31h-2.49a1.91 1.91 0 0 1 .12-.47 1.3 1.3 0 0 1 .25-.42 1.15 1.15 0 0 1 .42-.3 1.25 1.25 0 0 1 .51-.1 1.12 1.12 0 0 1 .51.11 1 1 0 0 1 .37.27 1.09 1.09 0 0 1 .22.41 1.45 1.45 0 0 1 .08.5Z"></path><path class="sf-logo-3" d="M70.76 20.28a3 3 0 0 0-3.15 2.83 3 3 0 0 0 3.14 2.8 3.43 3.43 0 0 0 1.67-.39l-.06-.06a2.78 2.78 0 0 1-.52-.79 2.18 2.18 0 0 1-1 .25 1.83 1.83 0 0 1-1.9-1.83 1.8 1.8 0 0 1 1.83-1.8 2.16 2.16 0 0 1 1.08.29 3 3 0 0 1 .61-.91 3.42 3.42 0 0 0-1.7-.39Zm-22.84 4.89L46.73 24l1.8-1.79-1.79-1.77 1.2-1.18 3 2.95ZM49.77 27l-1.2-1.18 3-3 3 3L53.36 27l-1.79-1.77Zm1.79-5.42-3-3 1.2-1.19 1.79 1.77 1.8-1.78 1.2 1.19ZM36.78 21a1.39 1.39 0 0 1 1.21.61 2.76 2.76 0 0 1 .44 1.65 2.75 2.75 0 0 1-.43 1.65 1.58 1.58 0 0 1-2.44 0h-.08l-.2.48h-.91v-6.05h1.19v2.28a1.39 1.39 0 0 1 1.22-.62Zm-.38 1a.77.77 0 0 0-.65.28 1.63 1.63 0 0 0-.21.89v.13a1.83 1.83 0 0 0 .21 1 .75.75 0 0 0 .66.3.68.68 0 0 0 .59-.4 1.92 1.92 0 0 0 .21-1 1.75 1.75 0 0 0-.21-1 .69.69 0 0 0-.6-.28Zm2.39-.87h1.3l.83 2.46a3.12 3.12 0 0 1 .14.76 3.11 3.11 0 0 1 .16-.76l.81-2.46h1.28L41.49 26a2.09 2.09 0 0 1-.72 1 1.82 1.82 0 0 1-1.1.34 3.08 3.08 0 0 1-.61-.06v-1a2.34 2.34 0 0 0 .47.05.82.82 0 0 0 .55-.19 1.28 1.28 0 0 0 .37-.59l.07-.21Z"></path><path class="sf-logo-1" d="M30.11 19.56h2.24v5.86h-2.24z"></path></g></svg>